<mxfile host="app.diagrams.net" modified="2022-11-14T23:26:29.441Z" agent="5.0 (Windows NT 10.0; Win64; x64) AppleWebKit/537.36 (KHTML, like Gecko) Chrome/106.0.0.0 Safari/537.36 OPR/92.0.0.0" etag="dcbs_AqA3Nav7o0sQtqd" version="20.5.3" type="github" pages="3">
  <diagram id="DB_KoQphgGHMV6jqIenS" name="Page-3">
    <mxGraphModel dx="1524" dy="646" grid="1" gridSize="10" guides="1" tooltips="1" connect="1" arrows="1" fold="1" page="1" pageScale="1" pageWidth="850" pageHeight="1100" math="0" shadow="0">
      <root>
        <mxCell id="0" />
        <mxCell id="1" parent="0" />
        <mxCell id="krg5zjwTR5uAVcSv_X0c-16" value="Passageiro" style="shape=umlActor;verticalLabelPosition=bottom;verticalAlign=top;html=1;outlineConnect=0;fontColor=default;" parent="1" vertex="1">
          <mxGeometry x="560" y="320" width="40" height="80" as="geometry" />
        </mxCell>
        <mxCell id="krg5zjwTR5uAVcSv_X0c-29" value="Autenticação" style="ellipse;whiteSpace=wrap;html=1;" parent="1" vertex="1">
          <mxGeometry x="330" y="370" width="120" height="80" as="geometry" />
        </mxCell>
        <mxCell id="krg5zjwTR5uAVcSv_X0c-34" value="Piloto" style="shape=umlActor;verticalLabelPosition=bottom;verticalAlign=top;html=1;outlineConnect=0;fontColor=default;" parent="1" vertex="1">
          <mxGeometry x="40" y="320" width="40" height="80" as="geometry" />
        </mxCell>
        <mxCell id="YvQrXhBBDpmXkZP4BnHX-1" value="Confirmação de voo" style="ellipse;whiteSpace=wrap;html=1;" parent="1" vertex="1">
          <mxGeometry y="520" width="120" height="80" as="geometry" />
        </mxCell>
        <mxCell id="LEACDY7C-v40tKFxFOd4-1" value="Gerenciamento" style="ellipse;whiteSpace=wrap;html=1;" parent="1" vertex="1">
          <mxGeometry x="160" y="520" width="120" height="80" as="geometry" />
        </mxCell>
        <mxCell id="4b4vz3vyElWD_I9-EliE-1" value="Dados do passageiro" style="ellipse;whiteSpace=wrap;html=1;" parent="1" vertex="1">
          <mxGeometry x="160" y="660" width="120" height="80" as="geometry" />
        </mxCell>
        <mxCell id="pc_jejc_uD-EupzFowfa-1" value="Horário de Voo" style="ellipse;whiteSpace=wrap;html=1;" parent="1" vertex="1">
          <mxGeometry y="660" width="120" height="80" as="geometry" />
        </mxCell>
        <mxCell id="MJRMDW_DKKIYBoVmUF2m-1" value="Confirmação de rota" style="ellipse;whiteSpace=wrap;html=1;" parent="1" vertex="1">
          <mxGeometry y="820" width="120" height="80" as="geometry" />
        </mxCell>
        <mxCell id="MJRMDW_DKKIYBoVmUF2m-3" value="&amp;lt;&amp;lt;EXTEND&amp;gt;&amp;gt;" style="endArrow=none;dashed=1;html=1;dashPattern=1 3;strokeWidth=2;rounded=0;entryX=0.5;entryY=1;entryDx=0;entryDy=0;exitX=0.5;exitY=0;exitDx=0;exitDy=0;" parent="1" source="4b4vz3vyElWD_I9-EliE-1" target="LEACDY7C-v40tKFxFOd4-1" edge="1">
          <mxGeometry width="50" height="50" relative="1" as="geometry">
            <mxPoint x="420" y="660" as="sourcePoint" />
            <mxPoint x="470" y="610" as="targetPoint" />
          </mxGeometry>
        </mxCell>
        <mxCell id="MJRMDW_DKKIYBoVmUF2m-4" value="&amp;lt;&amp;lt;EXTEND&amp;gt;&amp;gt;" style="endArrow=none;dashed=1;html=1;dashPattern=1 3;strokeWidth=2;rounded=0;exitX=1;exitY=0;exitDx=0;exitDy=0;entryX=0;entryY=1;entryDx=0;entryDy=0;" parent="1" source="pc_jejc_uD-EupzFowfa-1" target="LEACDY7C-v40tKFxFOd4-1" edge="1">
          <mxGeometry width="50" height="50" relative="1" as="geometry">
            <mxPoint x="420" y="660" as="sourcePoint" />
            <mxPoint x="470" y="610" as="targetPoint" />
          </mxGeometry>
        </mxCell>
        <mxCell id="MJRMDW_DKKIYBoVmUF2m-6" value="&amp;lt;&amp;lt;INCLUDE&amp;gt;&amp;gt;" style="endArrow=classic;dashed=1;html=1;rounded=0;exitX=0.5;exitY=0;exitDx=0;exitDy=0;entryX=0.5;entryY=1;entryDx=0;entryDy=0;endFill=1;" parent="1" source="MJRMDW_DKKIYBoVmUF2m-1" target="pc_jejc_uD-EupzFowfa-1" edge="1">
          <mxGeometry width="50" height="50" relative="1" as="geometry">
            <mxPoint x="420" y="740" as="sourcePoint" />
            <mxPoint x="470" y="690" as="targetPoint" />
          </mxGeometry>
        </mxCell>
        <mxCell id="MJRMDW_DKKIYBoVmUF2m-8" value="&amp;lt;&amp;lt;INCLUDE&amp;gt;&amp;gt;" style="endArrow=classic;dashed=1;html=1;rounded=0;exitX=0.5;exitY=0;exitDx=0;exitDy=0;entryX=0.5;entryY=1;entryDx=0;entryDy=0;endFill=1;" parent="1" source="pc_jejc_uD-EupzFowfa-1" target="YvQrXhBBDpmXkZP4BnHX-1" edge="1">
          <mxGeometry width="50" height="50" relative="1" as="geometry">
            <mxPoint x="80" y="860" as="sourcePoint" />
            <mxPoint x="80" y="780" as="targetPoint" />
          </mxGeometry>
        </mxCell>
        <mxCell id="MJRMDW_DKKIYBoVmUF2m-9" value="" style="endArrow=none;html=1;rounded=0;exitX=0.5;exitY=0;exitDx=0;exitDy=0;" parent="1" source="YvQrXhBBDpmXkZP4BnHX-1" edge="1">
          <mxGeometry width="50" height="50" relative="1" as="geometry">
            <mxPoint x="420" y="520" as="sourcePoint" />
            <mxPoint x="60" y="420" as="targetPoint" />
          </mxGeometry>
        </mxCell>
        <mxCell id="MJRMDW_DKKIYBoVmUF2m-10" value="" style="endArrow=none;html=1;rounded=0;exitX=0;exitY=0;exitDx=0;exitDy=0;" parent="1" source="LEACDY7C-v40tKFxFOd4-1" edge="1">
          <mxGeometry width="50" height="50" relative="1" as="geometry">
            <mxPoint x="420" y="520" as="sourcePoint" />
            <mxPoint x="90" y="400" as="targetPoint" />
          </mxGeometry>
        </mxCell>
        <mxCell id="Pamv8PDbwYgDGSrDCc2K-1" value="Admin" style="shape=umlActor;verticalLabelPosition=bottom;verticalAlign=top;html=1;outlineConnect=0;fontColor=default;" parent="1" vertex="1">
          <mxGeometry x="370" y="20" width="40" height="80" as="geometry" />
        </mxCell>
        <mxCell id="i5gndxuALdUuj_lV_UnU-1" value="Verificar" style="ellipse;whiteSpace=wrap;html=1;" parent="1" vertex="1">
          <mxGeometry x="520" y="510" width="120" height="80" as="geometry" />
        </mxCell>
        <mxCell id="QO055XUjEMubzLS9QJlN-1" value="Horário do voo" style="ellipse;whiteSpace=wrap;html=1;" parent="1" vertex="1">
          <mxGeometry x="520" y="640" width="120" height="80" as="geometry" />
        </mxCell>
        <mxCell id="QO055XUjEMubzLS9QJlN-2" value="Número do voo" style="ellipse;whiteSpace=wrap;html=1;" parent="1" vertex="1">
          <mxGeometry x="720" y="390" width="120" height="80" as="geometry" />
        </mxCell>
        <mxCell id="QO055XUjEMubzLS9QJlN-3" value="&amp;lt;&amp;lt;EXTEND&amp;gt;&amp;gt;" style="endArrow=none;dashed=1;html=1;dashPattern=1 3;strokeWidth=2;rounded=0;entryX=0.5;entryY=1;entryDx=0;entryDy=0;exitX=0.5;exitY=0;exitDx=0;exitDy=0;" parent="1" source="QO055XUjEMubzLS9QJlN-1" target="i5gndxuALdUuj_lV_UnU-1" edge="1">
          <mxGeometry width="50" height="50" relative="1" as="geometry">
            <mxPoint x="370" y="720" as="sourcePoint" />
            <mxPoint x="420" y="670" as="targetPoint" />
          </mxGeometry>
        </mxCell>
        <mxCell id="QO055XUjEMubzLS9QJlN-4" value="" style="endArrow=none;dashed=1;html=1;dashPattern=1 3;strokeWidth=2;rounded=0;exitX=0;exitY=0.5;exitDx=0;exitDy=0;entryX=1;entryY=0;entryDx=0;entryDy=0;" parent="1" source="QO055XUjEMubzLS9QJlN-2" target="i5gndxuALdUuj_lV_UnU-1" edge="1">
          <mxGeometry width="50" height="50" relative="1" as="geometry">
            <mxPoint x="370" y="720" as="sourcePoint" />
            <mxPoint x="650" y="550" as="targetPoint" />
          </mxGeometry>
        </mxCell>
        <mxCell id="QO055XUjEMubzLS9QJlN-5" value="&amp;lt;&amp;lt;EXTEND&amp;gt;&amp;gt;" style="edgeLabel;html=1;align=center;verticalAlign=middle;resizable=0;points=[];" parent="QO055XUjEMubzLS9QJlN-4" vertex="1" connectable="0">
          <mxGeometry x="-0.3274" y="-1" relative="1" as="geometry">
            <mxPoint x="-17" y="10" as="offset" />
          </mxGeometry>
        </mxCell>
        <mxCell id="QO055XUjEMubzLS9QJlN-6" value="" style="endArrow=none;html=1;rounded=0;exitX=0.5;exitY=0;exitDx=0;exitDy=0;" parent="1" source="i5gndxuALdUuj_lV_UnU-1" edge="1">
          <mxGeometry width="50" height="50" relative="1" as="geometry">
            <mxPoint x="370" y="580" as="sourcePoint" />
            <mxPoint x="580" y="420" as="targetPoint" />
          </mxGeometry>
        </mxCell>
        <mxCell id="yQEzgMkHpzJSZJjitEPL-1" value="Cadastro" style="ellipse;whiteSpace=wrap;html=1;" parent="1" vertex="1">
          <mxGeometry x="330" y="170" width="120" height="80" as="geometry" />
        </mxCell>
        <mxCell id="yQEzgMkHpzJSZJjitEPL-2" value="Piloto" style="ellipse;whiteSpace=wrap;html=1;" parent="1" vertex="1">
          <mxGeometry x="90" y="170" width="120" height="80" as="geometry" />
        </mxCell>
        <mxCell id="yQEzgMkHpzJSZJjitEPL-3" value="Passageiro" style="ellipse;whiteSpace=wrap;html=1;" parent="1" vertex="1">
          <mxGeometry x="570" y="170" width="120" height="80" as="geometry" />
        </mxCell>
        <mxCell id="QQL3LoBIA_6VsCK3NGtx-1" value="&amp;lt;&amp;lt;EXTEND&amp;gt;&amp;gt;" style="endArrow=none;dashed=1;html=1;dashPattern=1 3;strokeWidth=2;rounded=0;entryX=1;entryY=0.5;entryDx=0;entryDy=0;exitX=0;exitY=0.5;exitDx=0;exitDy=0;" parent="1" source="yQEzgMkHpzJSZJjitEPL-3" target="yQEzgMkHpzJSZJjitEPL-1" edge="1">
          <mxGeometry width="50" height="50" relative="1" as="geometry">
            <mxPoint x="400" y="260" as="sourcePoint" />
            <mxPoint x="450" y="210" as="targetPoint" />
          </mxGeometry>
        </mxCell>
        <mxCell id="QQL3LoBIA_6VsCK3NGtx-2" value="&amp;lt;&amp;lt;EXTEND&amp;gt;&amp;gt;" style="endArrow=none;dashed=1;html=1;dashPattern=1 3;strokeWidth=2;rounded=0;entryX=0;entryY=0.5;entryDx=0;entryDy=0;exitX=1;exitY=0.5;exitDx=0;exitDy=0;" parent="1" source="yQEzgMkHpzJSZJjitEPL-2" target="yQEzgMkHpzJSZJjitEPL-1" edge="1">
          <mxGeometry width="50" height="50" relative="1" as="geometry">
            <mxPoint x="400" y="260" as="sourcePoint" />
            <mxPoint x="450" y="210" as="targetPoint" />
          </mxGeometry>
        </mxCell>
        <mxCell id="QQL3LoBIA_6VsCK3NGtx-6" value="" style="endArrow=none;html=1;rounded=0;exitX=0.5;exitY=0;exitDx=0;exitDy=0;" parent="1" source="yQEzgMkHpzJSZJjitEPL-1" edge="1">
          <mxGeometry width="50" height="50" relative="1" as="geometry">
            <mxPoint x="340" y="160" as="sourcePoint" />
            <mxPoint x="390" y="110" as="targetPoint" />
          </mxGeometry>
        </mxCell>
        <mxCell id="TAKQ1-dtwNRwtU8T1wdR-1" value="assento" style="ellipse;whiteSpace=wrap;html=1;" parent="1" vertex="1">
          <mxGeometry x="720" y="500" width="120" height="80" as="geometry" />
        </mxCell>
        <mxCell id="TAKQ1-dtwNRwtU8T1wdR-2" value="&amp;lt;&amp;lt;EXTEND&amp;gt;&amp;gt;" style="endArrow=none;dashed=1;html=1;dashPattern=1 3;strokeWidth=2;rounded=0;entryX=1;entryY=0.5;entryDx=0;entryDy=0;exitX=0;exitY=0.5;exitDx=0;exitDy=0;" parent="1" source="TAKQ1-dtwNRwtU8T1wdR-1" target="i5gndxuALdUuj_lV_UnU-1" edge="1">
          <mxGeometry width="50" height="50" relative="1" as="geometry">
            <mxPoint x="300" y="660" as="sourcePoint" />
            <mxPoint x="350" y="610" as="targetPoint" />
          </mxGeometry>
        </mxCell>
        <mxCell id="TAKQ1-dtwNRwtU8T1wdR-4" value="Destino" style="ellipse;whiteSpace=wrap;html=1;" parent="1" vertex="1">
          <mxGeometry x="720" y="620" width="120" height="80" as="geometry" />
        </mxCell>
        <mxCell id="TAKQ1-dtwNRwtU8T1wdR-5" value="&amp;lt;&amp;lt;EXTEND&amp;gt;&amp;gt;" style="endArrow=none;dashed=1;html=1;dashPattern=1 3;strokeWidth=2;rounded=0;entryX=0;entryY=0.5;entryDx=0;entryDy=0;exitX=1;exitY=1;exitDx=0;exitDy=0;" parent="1" source="i5gndxuALdUuj_lV_UnU-1" target="TAKQ1-dtwNRwtU8T1wdR-4" edge="1">
          <mxGeometry width="50" height="50" relative="1" as="geometry">
            <mxPoint x="300" y="660" as="sourcePoint" />
            <mxPoint x="350" y="610" as="targetPoint" />
          </mxGeometry>
        </mxCell>
        <mxCell id="0JYMCPMAX2sywjpOQV9H-5" value="" style="endArrow=classic;dashed=1;html=1;dashPattern=1 3;strokeWidth=2;rounded=0;exitX=1;exitY=0;exitDx=0;exitDy=0;entryX=0;entryY=0.5;entryDx=0;entryDy=0;endFill=1;" parent="1" source="YvQrXhBBDpmXkZP4BnHX-1" target="krg5zjwTR5uAVcSv_X0c-29" edge="1">
          <mxGeometry width="50" height="50" relative="1" as="geometry">
            <mxPoint x="310" y="520" as="sourcePoint" />
            <mxPoint x="360" y="470" as="targetPoint" />
          </mxGeometry>
        </mxCell>
        <mxCell id="0JYMCPMAX2sywjpOQV9H-7" value="&amp;lt;&amp;lt;INCLUDE&amp;gt;&amp;gt;" style="edgeLabel;html=1;align=center;verticalAlign=middle;resizable=0;points=[];" parent="0JYMCPMAX2sywjpOQV9H-5" vertex="1" connectable="0">
          <mxGeometry x="0.2588" relative="1" as="geometry">
            <mxPoint y="1" as="offset" />
          </mxGeometry>
        </mxCell>
        <mxCell id="0JYMCPMAX2sywjpOQV9H-9" value="" style="endArrow=classic;html=1;rounded=0;exitX=1;exitY=0;exitDx=0;exitDy=0;entryX=0;entryY=1;entryDx=0;entryDy=0;dashed=1;" parent="1" source="LEACDY7C-v40tKFxFOd4-1" target="krg5zjwTR5uAVcSv_X0c-29" edge="1">
          <mxGeometry width="50" height="50" relative="1" as="geometry">
            <mxPoint x="310" y="520" as="sourcePoint" />
            <mxPoint x="360" y="470" as="targetPoint" />
          </mxGeometry>
        </mxCell>
        <mxCell id="0JYMCPMAX2sywjpOQV9H-10" value="&amp;lt;&amp;lt;INCLUDE" style="edgeLabel;html=1;align=center;verticalAlign=middle;resizable=0;points=[];" parent="0JYMCPMAX2sywjpOQV9H-9" vertex="1" connectable="0">
          <mxGeometry x="0.2258" relative="1" as="geometry">
            <mxPoint as="offset" />
          </mxGeometry>
        </mxCell>
        <mxCell id="0JYMCPMAX2sywjpOQV9H-12" value="" style="endArrow=classic;html=1;rounded=0;dashed=1;exitX=0.25;exitY=0;exitDx=0;exitDy=0;exitPerimeter=0;entryX=1;entryY=1;entryDx=0;entryDy=0;" parent="1" source="i5gndxuALdUuj_lV_UnU-1" target="krg5zjwTR5uAVcSv_X0c-29" edge="1">
          <mxGeometry width="50" height="50" relative="1" as="geometry">
            <mxPoint x="310" y="520" as="sourcePoint" />
            <mxPoint x="360" y="470" as="targetPoint" />
          </mxGeometry>
        </mxCell>
        <mxCell id="0JYMCPMAX2sywjpOQV9H-13" value="&amp;lt;&amp;lt;INCLUDE&amp;gt;&amp;gt;" style="edgeLabel;html=1;align=center;verticalAlign=middle;resizable=0;points=[];" parent="0JYMCPMAX2sywjpOQV9H-12" vertex="1" connectable="0">
          <mxGeometry x="0.1638" relative="1" as="geometry">
            <mxPoint as="offset" />
          </mxGeometry>
        </mxCell>
        <mxCell id="0JYMCPMAX2sywjpOQV9H-14" value="" style="endArrow=classic;html=1;rounded=0;dashed=1;exitX=0.5;exitY=1;exitDx=0;exitDy=0;entryX=0.5;entryY=0;entryDx=0;entryDy=0;" parent="1" source="yQEzgMkHpzJSZJjitEPL-1" target="krg5zjwTR5uAVcSv_X0c-29" edge="1">
          <mxGeometry width="50" height="50" relative="1" as="geometry">
            <mxPoint x="310" y="320" as="sourcePoint" />
            <mxPoint x="460" y="310" as="targetPoint" />
          </mxGeometry>
        </mxCell>
        <mxCell id="0JYMCPMAX2sywjpOQV9H-18" value="" style="endArrow=block;html=1;rounded=0;endFill=0;" parent="1" edge="1">
          <mxGeometry width="50" height="50" relative="1" as="geometry">
            <mxPoint x="90" y="320" as="sourcePoint" />
            <mxPoint x="350" y="110" as="targetPoint" />
          </mxGeometry>
        </mxCell>
        <mxCell id="0JYMCPMAX2sywjpOQV9H-20" value="" style="endArrow=block;html=1;rounded=0;endFill=0;" parent="1" edge="1">
          <mxGeometry width="50" height="50" relative="1" as="geometry">
            <mxPoint x="540" y="340" as="sourcePoint" />
            <mxPoint x="100" y="340" as="targetPoint" />
          </mxGeometry>
        </mxCell>
        <mxCell id="0JYMCPMAX2sywjpOQV9H-21" value="" style="endArrow=block;html=1;rounded=0;endFill=0;" parent="1" edge="1">
          <mxGeometry width="50" height="50" relative="1" as="geometry">
            <mxPoint x="570" y="310" as="sourcePoint" />
            <mxPoint x="440" y="110" as="targetPoint" />
          </mxGeometry>
        </mxCell>
      </root>
    </mxGraphModel>
  </diagram>
  <diagram id="u9dceV1CrlsLdwrxmitV" name="Página-2">
    <mxGraphModel dx="1067" dy="452" grid="1" gridSize="10" guides="1" tooltips="1" connect="1" arrows="1" fold="1" page="1" pageScale="1" pageWidth="827" pageHeight="1169" math="0" shadow="0">
      <root>
        <mxCell id="0" />
        <mxCell id="1" parent="0" />
        <mxCell id="pW--Y3-rjB-CEEQFge7q-6" style="edgeStyle=orthogonalEdgeStyle;rounded=0;orthogonalLoop=1;jettySize=auto;html=1;fontColor=default;" parent="1" source="vAhR_hUPWZMlwu8dpJL6-1" edge="1">
          <mxGeometry relative="1" as="geometry">
            <mxPoint x="445" y="120" as="targetPoint" />
          </mxGeometry>
        </mxCell>
        <mxCell id="vAhR_hUPWZMlwu8dpJL6-1" value="login" style="ellipse;whiteSpace=wrap;html=1;aspect=fixed;" parent="1" vertex="1">
          <mxGeometry x="420" y="40" width="50" height="50" as="geometry" />
        </mxCell>
        <mxCell id="5TLLnblYcgV8JyTZpJ2o-2" style="edgeStyle=orthogonalEdgeStyle;rounded=0;orthogonalLoop=1;jettySize=auto;html=1;entryX=0.5;entryY=0;entryDx=0;entryDy=0;entryPerimeter=0;fontColor=default;" parent="1" source="pW--Y3-rjB-CEEQFge7q-1" target="gTgE_LaM91CC_7jq-QvD-1" edge="1">
          <mxGeometry relative="1" as="geometry" />
        </mxCell>
        <mxCell id="5TLLnblYcgV8JyTZpJ2o-5" style="edgeStyle=orthogonalEdgeStyle;rounded=0;orthogonalLoop=1;jettySize=auto;html=1;fontColor=default;" parent="1" source="pW--Y3-rjB-CEEQFge7q-1" edge="1">
          <mxGeometry relative="1" as="geometry">
            <mxPoint x="220" y="200" as="targetPoint" />
            <Array as="points">
              <mxPoint x="220" y="160" />
            </Array>
          </mxGeometry>
        </mxCell>
        <mxCell id="5TLLnblYcgV8JyTZpJ2o-6" style="edgeStyle=orthogonalEdgeStyle;rounded=0;orthogonalLoop=1;jettySize=auto;html=1;fontColor=default;" parent="1" source="pW--Y3-rjB-CEEQFge7q-1" edge="1">
          <mxGeometry relative="1" as="geometry">
            <mxPoint x="650" y="200" as="targetPoint" />
          </mxGeometry>
        </mxCell>
        <mxCell id="pW--Y3-rjB-CEEQFge7q-1" value="autenticar cliente" style="ellipse;whiteSpace=wrap;html=1;aspect=fixed;" parent="1" vertex="1">
          <mxGeometry x="415" y="130" width="60" height="60" as="geometry" />
        </mxCell>
        <mxCell id="R01Pas3LQ7wnkO6_4IjB-1" style="edgeStyle=orthogonalEdgeStyle;rounded=0;orthogonalLoop=1;jettySize=auto;html=1;fontColor=default;" parent="1" source="BtRnBM8UJ-lB7wq3tAkV-1" target="zbfqIVH8E4H61mrE1VuC-1" edge="1">
          <mxGeometry relative="1" as="geometry" />
        </mxCell>
        <mxCell id="gi8CPvIJenBGTdT0mqIQ-2" style="edgeStyle=orthogonalEdgeStyle;rounded=0;orthogonalLoop=1;jettySize=auto;html=1;fontColor=default;" parent="1" source="BtRnBM8UJ-lB7wq3tAkV-1" edge="1">
          <mxGeometry relative="1" as="geometry">
            <mxPoint x="280" y="330" as="targetPoint" />
          </mxGeometry>
        </mxCell>
        <mxCell id="BtRnBM8UJ-lB7wq3tAkV-1" value="Piloto" style="shape=umlActor;verticalLabelPosition=bottom;verticalAlign=top;html=1;outlineConnect=0;fontColor=default;" parent="1" vertex="1">
          <mxGeometry x="210" y="210" width="30" height="60" as="geometry" />
        </mxCell>
        <mxCell id="5l0Ij826ggFHex35DEkP-1" style="edgeStyle=orthogonalEdgeStyle;rounded=0;orthogonalLoop=1;jettySize=auto;html=1;fontColor=default;" parent="1" source="gTgE_LaM91CC_7jq-QvD-1" edge="1">
          <mxGeometry relative="1" as="geometry">
            <mxPoint x="410" y="340" as="targetPoint" />
          </mxGeometry>
        </mxCell>
        <mxCell id="gTgE_LaM91CC_7jq-QvD-1" value="Passageiro" style="shape=umlActor;verticalLabelPosition=bottom;verticalAlign=top;html=1;outlineConnect=0;fontColor=default;" parent="1" vertex="1">
          <mxGeometry x="429" y="210" width="30" height="60" as="geometry" />
        </mxCell>
        <mxCell id="bB1uWUEjoqTFFwmJ9kgm-2" style="edgeStyle=orthogonalEdgeStyle;rounded=0;orthogonalLoop=1;jettySize=auto;html=1;entryX=0.5;entryY=0;entryDx=0;entryDy=0;fontColor=default;" parent="1" source="5TLLnblYcgV8JyTZpJ2o-1" target="bB1uWUEjoqTFFwmJ9kgm-1" edge="1">
          <mxGeometry relative="1" as="geometry" />
        </mxCell>
        <mxCell id="SlC57jQGmzKvzEFKEXcA-17" style="edgeStyle=orthogonalEdgeStyle;rounded=0;orthogonalLoop=1;jettySize=auto;html=1;fontColor=default;" parent="1" source="5TLLnblYcgV8JyTZpJ2o-1" edge="1">
          <mxGeometry relative="1" as="geometry">
            <mxPoint x="600" y="350" as="targetPoint" />
          </mxGeometry>
        </mxCell>
        <mxCell id="5TLLnblYcgV8JyTZpJ2o-1" value="Admin" style="shape=umlActor;verticalLabelPosition=bottom;verticalAlign=top;html=1;outlineConnect=0;fontColor=none;direction=east;" parent="1" vertex="1">
          <mxGeometry x="630" y="210" width="30" height="60" as="geometry" />
        </mxCell>
        <mxCell id="5TLLnblYcgV8JyTZpJ2o-8" style="edgeStyle=orthogonalEdgeStyle;rounded=0;orthogonalLoop=1;jettySize=auto;html=1;fontColor=default;" parent="1" source="5TLLnblYcgV8JyTZpJ2o-7" edge="1">
          <mxGeometry relative="1" as="geometry">
            <mxPoint x="410" y="60" as="targetPoint" />
          </mxGeometry>
        </mxCell>
        <mxCell id="5TLLnblYcgV8JyTZpJ2o-7" value="Usuário" style="shape=umlActor;verticalLabelPosition=bottom;verticalAlign=top;html=1;outlineConnect=0;fontColor=default;" parent="1" vertex="1">
          <mxGeometry x="340" y="30" width="30" height="60" as="geometry" />
        </mxCell>
        <mxCell id="uiIcBngPKe6Fe0Yxp8Kt-2" style="edgeStyle=orthogonalEdgeStyle;rounded=0;orthogonalLoop=1;jettySize=auto;html=1;entryX=0.439;entryY=-0.013;entryDx=0;entryDy=0;entryPerimeter=0;fontColor=default;" parent="1" source="zbfqIVH8E4H61mrE1VuC-1" target="uiIcBngPKe6Fe0Yxp8Kt-1" edge="1">
          <mxGeometry relative="1" as="geometry" />
        </mxCell>
        <mxCell id="zbfqIVH8E4H61mrE1VuC-1" value="confirmação de rotas de voos" style="ellipse;whiteSpace=wrap;html=1;aspect=fixed;" parent="1" vertex="1">
          <mxGeometry x="60" y="240" width="80" height="80" as="geometry" />
        </mxCell>
        <mxCell id="AItv02itApJJ8CphBlgj-7" style="edgeStyle=orthogonalEdgeStyle;rounded=0;orthogonalLoop=1;jettySize=auto;html=1;fontColor=default;entryX=0.5;entryY=0;entryDx=0;entryDy=0;" parent="1" source="uiIcBngPKe6Fe0Yxp8Kt-1" target="AItv02itApJJ8CphBlgj-1" edge="1">
          <mxGeometry relative="1" as="geometry">
            <mxPoint x="105" y="509.9999999999999" as="targetPoint" />
          </mxGeometry>
        </mxCell>
        <mxCell id="uiIcBngPKe6Fe0Yxp8Kt-1" value="gerenciamento de horarios de voos" style="ellipse;whiteSpace=wrap;html=1;aspect=fixed;" parent="1" vertex="1">
          <mxGeometry x="60" y="370" width="90" height="90" as="geometry" />
        </mxCell>
        <mxCell id="AItv02itApJJ8CphBlgj-1" value="Confirmação de voos" style="ellipse;whiteSpace=wrap;html=1;aspect=fixed;" parent="1" vertex="1">
          <mxGeometry x="70" y="515" width="70" height="70" as="geometry" />
        </mxCell>
        <mxCell id="gi8CPvIJenBGTdT0mqIQ-1" value="gerenciamento de dados de passageiros" style="ellipse;whiteSpace=wrap;html=1;aspect=fixed;" parent="1" vertex="1">
          <mxGeometry x="240" y="330" width="90" height="90" as="geometry" />
        </mxCell>
        <mxCell id="PwbgmPl7aY_k18Dhr9_d-2" value="Checar informações do voo" style="ellipse;whiteSpace=wrap;html=1;aspect=fixed;fontColor=default;" parent="1" vertex="1">
          <mxGeometry x="370" y="340" width="70" height="70" as="geometry" />
        </mxCell>
        <mxCell id="bB1uWUEjoqTFFwmJ9kgm-1" value="acesso ao gerenciamento de rotas e horários de voos&amp;nbsp;" style="ellipse;whiteSpace=wrap;html=1;aspect=fixed;fontColor=none;" parent="1" vertex="1">
          <mxGeometry x="720" y="260" width="90" height="90" as="geometry" />
        </mxCell>
        <mxCell id="e_SQrKPAgHMnodLwskfm-5" value="Cadastrar dados do piloto" style="ellipse;whiteSpace=wrap;html=1;aspect=fixed;fontColor=default;direction=south;rotation=0;" parent="1" vertex="1">
          <mxGeometry x="490" y="380" width="80" height="80" as="geometry" />
        </mxCell>
        <mxCell id="SlC57jQGmzKvzEFKEXcA-15" value="Cadastrar dados do passageiro" style="ellipse;whiteSpace=wrap;html=1;aspect=fixed;fontColor=default;" parent="1" vertex="1">
          <mxGeometry x="630" y="380" width="80" height="80" as="geometry" />
        </mxCell>
        <mxCell id="SlC57jQGmzKvzEFKEXcA-19" value="" style="endArrow=classic;html=1;rounded=0;fontColor=default;entryX=0;entryY=0.5;entryDx=0;entryDy=0;" parent="1" target="e_SQrKPAgHMnodLwskfm-5" edge="1">
          <mxGeometry width="50" height="50" relative="1" as="geometry">
            <mxPoint x="600" y="350" as="sourcePoint" />
            <mxPoint x="580" y="340" as="targetPoint" />
            <Array as="points">
              <mxPoint x="530" y="350" />
            </Array>
          </mxGeometry>
        </mxCell>
        <mxCell id="SlC57jQGmzKvzEFKEXcA-20" value="" style="endArrow=classic;html=1;rounded=0;fontColor=default;entryX=0.5;entryY=0;entryDx=0;entryDy=0;" parent="1" target="SlC57jQGmzKvzEFKEXcA-15" edge="1">
          <mxGeometry width="50" height="50" relative="1" as="geometry">
            <mxPoint x="600" y="350" as="sourcePoint" />
            <mxPoint x="670" y="330" as="targetPoint" />
            <Array as="points">
              <mxPoint x="670" y="350" />
            </Array>
          </mxGeometry>
        </mxCell>
      </root>
    </mxGraphModel>
  </diagram>
  <diagram id="SoSEeA_8PVFk1h5bi3BL" name="Page-2">
    <mxGraphModel dx="1067" dy="452" grid="1" gridSize="10" guides="1" tooltips="1" connect="1" arrows="1" fold="1" page="1" pageScale="1" pageWidth="850" pageHeight="1100" math="0" shadow="0">
      <root>
        <mxCell id="0" />
        <mxCell id="1" parent="0" />
        <mxCell id="NyWkXTUMHJ_aPT_ArC7U-2" value="confirmação de rotas de voos" style="ellipse;whiteSpace=wrap;html=1;aspect=fixed;" parent="1" vertex="1">
          <mxGeometry x="60" y="240" width="80" height="80" as="geometry" />
        </mxCell>
        <mxCell id="NyWkXTUMHJ_aPT_ArC7U-4" value="gerenciamento de horarios de voos" style="ellipse;whiteSpace=wrap;html=1;aspect=fixed;" parent="1" vertex="1">
          <mxGeometry x="60" y="370" width="90" height="90" as="geometry" />
        </mxCell>
        <mxCell id="NyWkXTUMHJ_aPT_ArC7U-5" value="Confirmação de voos" style="ellipse;whiteSpace=wrap;html=1;aspect=fixed;" parent="1" vertex="1">
          <mxGeometry x="70" y="515" width="70" height="70" as="geometry" />
        </mxCell>
        <mxCell id="40l3m66EdZEQEUSZCu6R-1" value="Checar informações do voo" style="ellipse;whiteSpace=wrap;html=1;aspect=fixed;fontColor=default;" parent="1" vertex="1">
          <mxGeometry x="510" y="330" width="70" height="70" as="geometry" />
        </mxCell>
        <mxCell id="40l3m66EdZEQEUSZCu6R-2" value="Cadastrar dados do piloto" style="ellipse;whiteSpace=wrap;html=1;aspect=fixed;fontColor=default;direction=south;rotation=0;" parent="1" vertex="1">
          <mxGeometry x="280" y="610" width="80" height="80" as="geometry" />
        </mxCell>
        <mxCell id="40l3m66EdZEQEUSZCu6R-3" value="Cadastrar dados do passageiro" style="ellipse;whiteSpace=wrap;html=1;aspect=fixed;fontColor=default;" parent="1" vertex="1">
          <mxGeometry x="460" y="600" width="80" height="80" as="geometry" />
        </mxCell>
        <mxCell id="W3cAtUScjBVoSq0br3uQ-1" value="gerenciamento de dados de passageiros" style="ellipse;whiteSpace=wrap;html=1;aspect=fixed;" parent="1" vertex="1">
          <mxGeometry x="55" y="120" width="90" height="90" as="geometry" />
        </mxCell>
        <mxCell id="MJ3TjsjsUktA7qogzH4p-1" value="acesso ao gerenciamento de rotas e horários de voos&amp;nbsp;" style="ellipse;whiteSpace=wrap;html=1;aspect=fixed;fontColor=none;" parent="1" vertex="1">
          <mxGeometry x="365" y="700" width="90" height="90" as="geometry" />
        </mxCell>
        <mxCell id="wyWaYU6cspyCBSJ8tAyL-2" style="edgeStyle=orthogonalEdgeStyle;rounded=0;orthogonalLoop=1;jettySize=auto;html=1;" parent="1" source="bQ0u93tRPHiASQlLI-30-1" target="40l3m66EdZEQEUSZCu6R-1" edge="1">
          <mxGeometry relative="1" as="geometry" />
        </mxCell>
        <mxCell id="wyWaYU6cspyCBSJ8tAyL-7" style="edgeStyle=orthogonalEdgeStyle;rounded=0;orthogonalLoop=1;jettySize=auto;html=1;entryX=1;entryY=0.6;entryDx=0;entryDy=0;entryPerimeter=0;" parent="1" target="NyWkXTUMHJ_aPT_ArC7U-2" edge="1">
          <mxGeometry relative="1" as="geometry">
            <mxPoint x="390" y="240" as="sourcePoint" />
            <Array as="points">
              <mxPoint x="250" y="240" />
              <mxPoint x="250" y="288" />
            </Array>
          </mxGeometry>
        </mxCell>
        <mxCell id="wyWaYU6cspyCBSJ8tAyL-8" style="edgeStyle=orthogonalEdgeStyle;rounded=0;orthogonalLoop=1;jettySize=auto;html=1;entryX=1;entryY=0.5;entryDx=0;entryDy=0;" parent="1" source="bQ0u93tRPHiASQlLI-30-1" target="W3cAtUScjBVoSq0br3uQ-1" edge="1">
          <mxGeometry relative="1" as="geometry" />
        </mxCell>
        <mxCell id="wyWaYU6cspyCBSJ8tAyL-9" style="edgeStyle=orthogonalEdgeStyle;rounded=0;orthogonalLoop=1;jettySize=auto;html=1;entryX=1;entryY=0.5;entryDx=0;entryDy=0;" parent="1" source="bQ0u93tRPHiASQlLI-30-1" target="NyWkXTUMHJ_aPT_ArC7U-4" edge="1">
          <mxGeometry relative="1" as="geometry">
            <Array as="points">
              <mxPoint x="280" y="240" />
              <mxPoint x="280" y="415" />
            </Array>
          </mxGeometry>
        </mxCell>
        <mxCell id="wyWaYU6cspyCBSJ8tAyL-10" style="edgeStyle=orthogonalEdgeStyle;rounded=0;orthogonalLoop=1;jettySize=auto;html=1;entryX=1;entryY=0.5;entryDx=0;entryDy=0;" parent="1" source="bQ0u93tRPHiASQlLI-30-1" target="NyWkXTUMHJ_aPT_ArC7U-5" edge="1">
          <mxGeometry relative="1" as="geometry">
            <Array as="points">
              <mxPoint x="300" y="240" />
              <mxPoint x="300" y="550" />
            </Array>
          </mxGeometry>
        </mxCell>
        <mxCell id="bQ0u93tRPHiASQlLI-30-1" value="Piloto" style="shape=umlActor;verticalLabelPosition=bottom;verticalAlign=top;html=1;outlineConnect=0;fontColor=default;" parent="1" vertex="1">
          <mxGeometry x="395" y="210" width="30" height="60" as="geometry" />
        </mxCell>
        <mxCell id="wyWaYU6cspyCBSJ8tAyL-3" style="edgeStyle=orthogonalEdgeStyle;rounded=0;orthogonalLoop=1;jettySize=auto;html=1;entryX=0;entryY=0.5;entryDx=0;entryDy=0;" parent="1" source="NZyysA7Y700ieZD1UQDf-1" target="40l3m66EdZEQEUSZCu6R-1" edge="1">
          <mxGeometry relative="1" as="geometry" />
        </mxCell>
        <mxCell id="NZyysA7Y700ieZD1UQDf-1" value="Passageiro" style="shape=umlActor;verticalLabelPosition=bottom;verticalAlign=top;html=1;outlineConnect=0;fontColor=default;" parent="1" vertex="1">
          <mxGeometry x="395" y="335" width="30" height="60" as="geometry" />
        </mxCell>
        <mxCell id="wyWaYU6cspyCBSJ8tAyL-4" style="edgeStyle=orthogonalEdgeStyle;rounded=0;orthogonalLoop=1;jettySize=auto;html=1;entryX=0.343;entryY=0.986;entryDx=0;entryDy=0;entryPerimeter=0;" parent="1" source="wyWaYU6cspyCBSJ8tAyL-1" target="40l3m66EdZEQEUSZCu6R-1" edge="1">
          <mxGeometry relative="1" as="geometry" />
        </mxCell>
        <mxCell id="wyWaYU6cspyCBSJ8tAyL-6" style="edgeStyle=orthogonalEdgeStyle;rounded=0;orthogonalLoop=1;jettySize=auto;html=1;" parent="1" source="wyWaYU6cspyCBSJ8tAyL-1" target="40l3m66EdZEQEUSZCu6R-3" edge="1">
          <mxGeometry relative="1" as="geometry" />
        </mxCell>
        <mxCell id="wyWaYU6cspyCBSJ8tAyL-14" style="edgeStyle=orthogonalEdgeStyle;rounded=0;orthogonalLoop=1;jettySize=auto;html=1;entryX=0.5;entryY=1;entryDx=0;entryDy=0;" parent="1" source="wyWaYU6cspyCBSJ8tAyL-1" target="NyWkXTUMHJ_aPT_ArC7U-4" edge="1">
          <mxGeometry relative="1" as="geometry" />
        </mxCell>
        <mxCell id="wyWaYU6cspyCBSJ8tAyL-15" style="edgeStyle=orthogonalEdgeStyle;rounded=0;orthogonalLoop=1;jettySize=auto;html=1;entryX=0;entryY=0.5;entryDx=0;entryDy=0;" parent="1" source="wyWaYU6cspyCBSJ8tAyL-1" target="NyWkXTUMHJ_aPT_ArC7U-2" edge="1">
          <mxGeometry relative="1" as="geometry" />
        </mxCell>
        <mxCell id="wyWaYU6cspyCBSJ8tAyL-16" style="edgeStyle=orthogonalEdgeStyle;rounded=0;orthogonalLoop=1;jettySize=auto;html=1;entryX=0;entryY=0.5;entryDx=0;entryDy=0;" parent="1" source="wyWaYU6cspyCBSJ8tAyL-1" target="W3cAtUScjBVoSq0br3uQ-1" edge="1">
          <mxGeometry relative="1" as="geometry">
            <Array as="points">
              <mxPoint x="10" y="490" />
              <mxPoint x="10" y="165" />
            </Array>
          </mxGeometry>
        </mxCell>
        <mxCell id="wyWaYU6cspyCBSJ8tAyL-18" style="edgeStyle=orthogonalEdgeStyle;rounded=0;orthogonalLoop=1;jettySize=auto;html=1;" parent="1" source="wyWaYU6cspyCBSJ8tAyL-1" target="40l3m66EdZEQEUSZCu6R-2" edge="1">
          <mxGeometry relative="1" as="geometry" />
        </mxCell>
        <mxCell id="wyWaYU6cspyCBSJ8tAyL-19" style="edgeStyle=orthogonalEdgeStyle;rounded=0;orthogonalLoop=1;jettySize=auto;html=1;" parent="1" source="wyWaYU6cspyCBSJ8tAyL-1" target="MJ3TjsjsUktA7qogzH4p-1" edge="1">
          <mxGeometry relative="1" as="geometry" />
        </mxCell>
        <mxCell id="wyWaYU6cspyCBSJ8tAyL-1" value="Admin" style="shape=umlActor;verticalLabelPosition=bottom;verticalAlign=top;html=1;outlineConnect=0;fontColor=none;direction=east;" parent="1" vertex="1">
          <mxGeometry x="395" y="460" width="30" height="60" as="geometry" />
        </mxCell>
      </root>
    </mxGraphModel>
  </diagram>
</mxfile>
